<?xml version="1.0" standalone="no"?><!DOCTYPE svg PUBLIC "-//W3C//DTD SVG 1.1//EN" "http://www.w3.org/Graphics/SVG/1.1/DTD/svg11.dtd"><svg t="1732284074193" class="icon" viewBox="0 0 1024 1024" version="1.1" xmlns="http://www.w3.org/2000/svg" p-id="4497" xmlns:xlink="http://www.w3.org/1999/xlink" width="200" height="200"><path d="M153.08799997 114.688c0 5.632 3.072 11.264 8.192 14.336s11.264 3.072 16.384 0 8.192-8.192 8.192-14.336c0-9.216-7.168-16.384-16.384-16.384-9.216 0.512-16.384 7.68-16.384 16.384z m638.976 22.528c-12.8 0-23.04-10.24-23.04-23.04s10.24-23.04 23.04-23.04 23.04 10.24 23.04 23.04-10.24 23.04-23.04 23.04z m0-40.448c-9.728 0-17.408 7.68-17.408 17.408s7.68 17.408 17.408 17.408 17.408-7.68 17.408-17.408-8.192-17.408-17.408-17.408zM247.29599997 972.8H232.95999997v-166.4h14.336v166.4z m3.072-180.736l-13.824-4.608 28.672-86.016c13.312-39.424 26.112-78.848 39.424-117.76l13.824 4.608c-13.312 39.424-26.112 78.848-39.424 117.76l-28.672 86.016z" fill="#ffffff" p-id="4498"></path><path d="M232.95999997 806.4c-0.512-6.656 1.536-12.288 3.072-17.408l0.512-1.536 13.824 4.608-0.512 1.536c-1.536 4.096-2.56 7.68-2.56 11.264l-14.336 1.536zM255.99999997 998.912c-5.12 0-11.776-0.512-16.896-5.632-6.144-5.632-6.144-13.824-6.144-19.456v-1.024h14.336v1.024c0 3.584 0 7.168 1.536 8.704l0.512 0.512c1.536 1.536 5.12 1.536 8.704 1.536h514.048c3.072 0 4.608-0.512 5.632-1.024l0.512-0.512c0.512-0.512 1.024-1.536 1.536-5.12v-170.496c0-2.56 0-5.12-0.512-7.168-9.216-28.16-18.944-56.32-28.16-84.48-14.336-42.496-28.16-84.992-42.496-127.488-1.024-2.56-3.072-4.608-5.632-4.608H330.23999997c-2.56 0-5.632 0-7.68 0.512-1.536 0.512-3.072 2.048-3.584 3.584l-13.824-4.608c2.048-6.656 7.168-11.776 13.824-13.312 4.096-1.024 8.192-1.024 11.264-1.024h372.224c8.704-0.512 16.896 5.632 19.456 14.336 14.336 42.496 28.16 84.992 42.496 127.488 9.216 28.16 18.944 56.32 28.16 84.48v0.512c1.024 4.096 1.024 8.192 1.024 11.776v169.984c0 7.168-2.048 12.288-6.144 15.872-5.12 5.12-12.288 5.632-15.872 5.632H255.99999997z" fill="#ffffff" p-id="4499"></path><path d="M513.02399997 894.976c-16.384 0-32.768-5.12-46.08-14.848-18.944-13.824-31.232-35.84-32.256-58.88 0-2.048-0.512-6.144-1.536-7.168l-0.512-0.512c-0.512-0.512-2.56-1.024-5.12-1.024H268.79999997c-4.096 0-7.168-3.072-7.168-7.168s3.072-7.168 7.168-7.168h158.72c5.12 0 10.752 1.024 15.36 5.12 6.144 5.12 6.656 13.312 6.656 17.408 1.024 18.432 10.752 36.864 26.112 47.616 11.776 8.704 26.624 12.8 40.96 12.288 16.896-0.512 33.792-8.704 44.544-21.504 9.728-10.752 15.36-25.6 15.872-39.424 0-3.584 0.512-10.752 6.144-15.872 4.608-5.12 11.264-5.632 15.872-6.144h158.72c4.096 0 7.168 3.072 7.168 7.168s-3.072 7.168-7.168 7.168h-158.72c-3.584 0-5.12 0.512-5.632 1.024l-0.512 0.512c-1.024 1.024-1.536 4.608-1.536 5.632-0.512 17.92-7.168 35.328-19.456 48.64-13.824 15.872-33.792 25.6-54.784 26.624-1.536 0-2.56 0.512-4.096 0.512zM1075.19999997 397.824s-11.776 39.424-34.816 45.056c0 0 29.184 11.776 34.816 40.448 0 0 4.608-41.984 37.888-43.008 0 0-36.352-19.456-37.888-42.496z m36.352-64.512s-4.608 14.848-13.312 16.896c0 0 10.752 4.608 13.312 15.36 0 0 1.536-15.872 14.336-15.872 0 0-13.824-7.68-14.336-16.384zM401.91999997 30.208s-8.704 30.208-26.624 34.304c0 0 22.016 8.704 26.624 31.232 0 0 3.584-32.256 28.672-32.768 0.512 0-27.648-14.848-28.672-32.768zM664.06399997 289.28l72.704 32.768 119.808-94.208-91.136 98.304 91.136 30.208 50.176-183.296-242.688 116.224zM764.92799997 348.672l-5.12 55.808 31.232-40.96-26.112-14.848zM466.94399997 637.44c-18.432 10.24-32.256 15.872-32.256 15.872l3.072 8.192c0.512 0 14.336-5.632 33.28-16.384l-4.096-7.68z m40.96-27.648c-8.704 6.656-17.408 13.312-26.624 18.944-2.048 1.536-2.56 4.096-1.536 6.144 1.536 2.048 4.096 2.56 6.144 1.536 9.728-6.144 18.944-12.8 27.648-19.456 1.024-1.024 2.048-2.56 1.536-4.096 0-1.536-1.536-3.072-2.56-3.584-2.048-0.512-3.584-0.512-4.608 0.512z m47.104-45.056c-2.048-1.536-4.608-1.024-6.144 1.024-7.168 10.24-15.36 19.968-25.088 29.184-1.536 1.536-1.536 4.608 0 6.144s4.608 1.536 6.144 0c10.24-9.728 18.944-19.968 26.112-30.72 0.512-1.024 1.024-2.048 0.512-3.072 0.512-0.512-0.512-1.536-1.536-2.56z m19.968-93.696c0 1.536 1.024 3.072 2.56 3.584s3.072 0.512 4.608-0.512c1.024-1.024 2.048-2.56 1.536-4.096-2.048-19.456-9.216-34.304-20.48-44.032-2.048-1.536-4.608-1.024-6.144 0.512s-1.536 4.608 0.512 6.144c9.728 7.68 15.872 20.992 17.408 38.4z m-70.656-43.52c0.512 0 1.024 0 2.048-0.512 11.776-5.12 24.576-6.656 35.84-3.584 2.56 0.512 4.608-0.512 5.632-3.072 0.512-2.56-0.512-4.608-3.072-5.632-13.312-3.584-28.16-2.56-41.472 3.584-2.048 1.024-3.072 3.072-2.56 5.12 0 2.56 1.536 4.096 3.584 4.096z m-23.552 44.032c-1.024-3.584-1.024-7.168-0.512-10.752l4.096-13.312c2.048-3.584 4.096-6.656 6.656-9.216 1.536-1.536 1.536-4.608 0-6.144s-4.608-1.536-6.144 0c-11.264 11.776-15.872 26.624-12.288 41.984 0.512 2.56 3.072 3.584 5.12 3.072 2.048-1.024 3.584-3.584 3.072-5.632z m1.024 15.36c-2.048 1.536-2.56 4.096-1.024 6.144 4.608 6.656 10.752 13.312 17.92 19.456 2.56 2.048 5.632 4.608 8.192 6.656 2.048 1.536 4.608 1.024 6.144-1.024s1.024-4.608-1.024-6.144l-7.68-6.144c-6.656-5.632-12.288-11.776-16.384-17.92-1.536-2.048-4.096-2.56-6.144-1.024z m68.608 49.664c2.048 0 4.096-1.536 4.096-4.096 0-2.048-1.536-4.096-3.584-4.608-8.704-1.024-16.896-4.096-25.6-8.192-2.048-1.024-4.608 0-5.632 2.048s0 4.608 2.048 5.632c9.216 4.608 18.432 7.68 28.16 9.216h0.512z m32.768-10.752c-1.536 0.512-3.584 1.024-5.12 1.536 3.072-10.24 5.12-20.992 6.144-31.232 0-1.024-0.512-2.048-1.024-3.072s-2.048-1.536-3.072-1.536c-2.56 0-4.608 1.536-4.608 4.096-1.024 11.264-3.072 22.528-7.168 33.28-1.536 0-3.584 0-5.12 0.512-2.56 0-4.096 2.048-4.096 4.096 0 2.56 2.048 4.096 4.608 4.096h1.536c-1.536 4.096-3.584 8.192-5.632 12.288-1.024 2.048 0 4.608 2.048 5.632s4.608 0.512 5.632-1.536a123.306 123.306 0 0 0 7.68-16.896c3.584-0.512 7.168-1.536 10.752-2.56 2.56-0.512 3.584-3.072 3.072-5.12-0.512-3.072-3.072-4.608-5.632-3.584z m51.2-30.208c-10.24 8.704-19.968 16.384-30.208 21.504-2.048 1.024-3.072 3.584-1.536 6.144 1.024 2.048 3.584 3.072 6.144 1.536 10.24-5.632 20.992-13.312 31.744-22.528 1.024-1.024 1.536-2.56 1.536-4.096-0.512-1.536-1.536-3.072-3.072-3.072-2.048-1.024-3.584-0.512-4.608 0.512z m44.544-43.52c-1.024-0.512-2.048-1.024-3.072-1.024s-2.048 0.512-3.072 1.536c-7.168 9.728-14.848 18.944-22.528 26.624-1.536 1.536-1.536 4.608 0.512 6.144 1.536 1.536 4.608 1.536 6.144 0 7.68-8.192 15.36-17.408 23.04-27.648 0.512-1.024 1.024-2.048 1.024-3.072-0.512-0.512-1.024-1.536-2.048-2.56z m35.84-55.808c-1.024-0.512-2.048-0.512-3.072-0.512-1.024 0.512-2.048 1.024-2.56 2.048-6.656 12.288-14.336 24.064-22.016 35.328-1.024 1.536-1.024 3.072-0.512 4.608s2.048 2.56 3.584 2.56 3.072-0.512 4.096-2.048c7.68-11.776 15.36-24.064 22.528-36.352 0.512-1.024 0.512-2.048 0.512-3.072-0.512-1.536-1.536-2.048-2.56-2.56zM742.39999997 340.48c-1.024-0.512-2.048-0.512-3.584 0-1.024 0.512-2.048 1.024-2.56 2.56 0 0-5.632 13.312-15.36 32.768-1.024 2.048-0.512 4.608 2.048 5.632 2.048 1.024 4.608 0.512 5.632-2.048 10.24-19.456 15.872-32.768 15.872-33.28 1.024-2.048 0-4.608-2.048-5.632z" fill="#ffffff" p-id="4500"></path></svg>