<?xml version="1.0" standalone="no"?><!DOCTYPE svg PUBLIC "-//W3C//DTD SVG 1.1//EN" "http://www.w3.org/Graphics/SVG/1.1/DTD/svg11.dtd"><svg t="1736347337828" class="icon" viewBox="0 0 1113 1024" version="1.1" xmlns="http://www.w3.org/2000/svg" p-id="14636" xmlns:xlink="http://www.w3.org/1999/xlink" width="217.3828125" height="200"><path d="M1102.802999 465.47458L577.980966 7.902605a36.285202 36.285202 0 0 0-45.145024 0L11.842777 469.036318a39.468505 39.468505 0 0 0-10.484865 38.399983c6.433389 13.757211 19.6786 22.995468 34.726942 24.242077h73.01562v363.074624a144.116807 144.116807 0 0 0 24.086251 94.386046 109.901865 109.901865 0 0 0 83.389181 34.815985h656.917975c65.49145 1.714086 119.986035-50.242761 121.766904-116.112645V528.472814l79.916487-3.539477a33.39129 33.39129 0 0 0 31.499116-24.175294 23.462946 23.462946 0 0 0-0.890434-33.035116 27.158249 27.158249 0 0 0-2.982955-2.226086zM803.950955 835.828506l-27.759292 27.981901a41.805895 41.805895 0 0 1-55.629889 0l-132.006899-132.741507a207.916431 207.916431 0 0 1-93.762742 24.219815 197.364784 197.364784 0 0 1-140.020809-58.189888 199.568609 199.568609 0 0 1-58.056323-140.688634v-0.289391a182.650355 182.650355 0 0 1 24.041729-94.363785l106.317867 106.91891a60.104322 60.104322 0 0 0 81.986747 4.118259 59.503278 59.503278 0 0 0 2.827129-86.594745l-95.988828-96.523089a11.442082 11.442082 0 0 1 3.739825-18.632339 201.460782 201.460782 0 0 1 74.841011-14.091125c109.300822-0.066783 197.965827 88.998918 198.05487 198.900783a205.245128 205.245128 0 0 1-20.991991 90.779787l132.051421 132.786029a36.50781 36.50781 0 0 1 0 55.941541l0.356174 0.467478z" fill="#916532" p-id="14637"></path></svg>