<?xml version="1.0" standalone="no"?><!DOCTYPE svg PUBLIC "-//W3C//DTD SVG 1.1//EN" "http://www.w3.org/Graphics/SVG/1.1/DTD/svg11.dtd"><svg t="1736347344619" class="icon" viewBox="0 0 1024 1024" version="1.1" xmlns="http://www.w3.org/2000/svg" p-id="14785" xmlns:xlink="http://www.w3.org/1999/xlink" width="200" height="200"><path d="M409.6 51.2a51.2 51.2 0 0 1 51.2 51.2v92.7744l361.1136-112.7936A76.8 76.8 0 0 1 921.6 155.648V896a76.8 76.8 0 0 1-76.8 76.8h-665.6A76.8 76.8 0 0 1 102.4 896V363.6736A76.8 76.8 0 0 1 156.3136 290.304L256 259.1744V102.4a51.2 51.2 0 0 1 51.2-51.2h102.4z m358.4 768H256a51.2 51.2 0 0 0 0 102.4h512a51.2 51.2 0 0 0 0-102.4z m-102.4-409.6H358.4a51.2 51.2 0 0 0-51.2 51.2v153.6a51.2 51.2 0 0 0 51.2 51.2h307.2a51.2 51.2 0 0 0 51.2-51.2V460.8a51.2 51.2 0 0 0-51.2-51.2z" fill="#08B68B" p-id="14786"></path></svg>