<?xml version="1.0" standalone="no"?><!DOCTYPE svg PUBLIC "-//W3C//DTD SVG 1.1//EN" "http://www.w3.org/Graphics/SVG/1.1/DTD/svg11.dtd"><svg t="1736347328619" class="icon" viewBox="0 0 1024 1024" version="1.1" xmlns="http://www.w3.org/2000/svg" p-id="13645" xmlns:xlink="http://www.w3.org/1999/xlink" width="200" height="200"><path d="M785.066667 989.866667H238.933333C126.293333 989.866667 34.133333 897.706667 34.133333 785.066667V238.933333C34.133333 126.293333 126.293333 34.133333 238.933333 34.133333h546.133334c112.64 0 204.8 92.16 204.8 204.8v546.133334c0 112.64-92.16 204.8-204.8 204.8z" fill="#FFA932" p-id="13646"></path><path d="M768 465.92L583.68 271.36l-3.413333-5.12c-39.253333-37.546667-102.4-35.84-139.946667 3.413333L256 465.92c-11.946667 11.946667-17.066667 27.306667-17.066667 42.666667 0 30.72 22.186667 56.32 52.906667 61.44v139.946666c0 40.96 32.426667 73.386667 73.386667 73.386667h286.72c40.96 0 73.386667-32.426667 73.386666-73.386667v-139.946666c15.36 0 29.013333-6.826667 40.96-17.066667 11.946667-11.946667 18.773333-27.306667 18.773334-44.373333s-6.826667-32.426667-17.066667-42.666667zM510.293333 679.253333c-17.066667 5.12-34.133333 5.12-51.2 0L387.413333 750.933333c-6.826667 6.826667-17.066667 11.946667-29.013333 11.946667s-22.186667-5.12-30.72-11.946667c-15.36-15.36-15.36-40.96 0-56.32l69.973333-69.973333c-15.36-46.08 10.24-97.28 56.32-112.64 17.066667-5.12 35.84-5.12 52.906667-1.706667 5.12 1.706667 8.533333 5.12 10.24 10.24 1.706667 5.12 0 10.24-3.413333 15.36l-25.6 25.6c-1.706667 3.413333-3.413333 6.826667-3.413334 10.24 0 5.12 3.413333 10.24 6.826667 13.653334 3.413333 3.413333 8.533333 6.826667 13.653333 6.826666 3.413333 0 6.826667 0 10.24-3.413333l25.6-25.6c6.826667-6.826667 15.36-6.826667 22.186667 0 1.706667 1.706667 3.413333 3.413333 3.413333 6.826667 17.066667 46.08-10.24 95.573333-56.32 109.226666z" fill="#FFFFFF" p-id="13647"></path></svg>