<?xml version="1.0" standalone="no"?><!DOCTYPE svg PUBLIC "-//W3C//DTD SVG 1.1//EN" "http://www.w3.org/Graphics/SVG/1.1/DTD/svg11.dtd"><svg t="1736347042315" class="icon" viewBox="0 0 1024 1024" version="1.1" xmlns="http://www.w3.org/2000/svg" p-id="4662" xmlns:xlink="http://www.w3.org/1999/xlink" width="200" height="200"><path d="M295.873 134.915C283.077 135.936 272 127.624 272 117c0-10.624 11.077-18.936 23.873-17.915h79.254C387.923 98.064 399 106.376 399 117c0 10.624-11.077 18.936-23.873 17.915h-79.254z" fill="#000000" p-id="4663"></path><path d="M184.615 231c-28.976-0.268-57.152-7.93-80.706-21.947-5.424-2.952-8.628-8.02-8.474-13.403-0.541-4.886 1.523-9.723 5.65-13.235 4.048-4.18 10.089-6.688 16.545-6.869 4.809-0.001 9.46 1.425 13.114 4.021 15.906 9.71 35.138 14.935 54.88 14.91 49.43 0.001 89.564-33.174 89.786-74.218-0.323-41.635-40.657-75.424-90.795-76.061-21.014-0.25-41.456 5.685-57.704 16.753-3.533 2.747-8.288 4.144-13.115 3.854-6.585-0.02-12.838-2.402-17.15-6.534-2.798-3.488-4.402-7.542-4.64-11.728-0.155-5.383 3.05-10.451 8.473-13.403 23.847-16.565 54.057-25.482 85.145-25.13C259.746 8.194 319.778 58.042 320 119.589 318.169 180.868 258.429 230.03 184.615 231zM261.827 930.442c-4.817-0.073-9.48-1.427-13.308-3.865h-1.007c-111.475-80.486-120.051-222.153-18.864-311.582 101.188-89.428 271.381-90.596 374.322-2.569 102.942 88.028 97.166 229.793-12.703 311.799-4.031 2.602-9.015 3.967-14.113 3.864-5.331 0.071-10.478-1.621-14.315-4.705h-1.008c-4.18-3.561-6.248-8.486-5.646-13.442 0.188-4.759 2.571-9.273 6.654-12.603 45.647-34.341 71.723-83.178 71.777-134.428 0.677-47.77-21.528-93.793-61.696-127.875-40.023-34.106-94.985-53.156-152.224-52.763-90.611-0.656-172.113 45.821-204.2 116.448-32.089 70.626-7.964 150.436 60.444 199.962 9.607 6.224 10.46 18.069 1.815 25.205-3.166 4.772-9.411 7.539-15.928 7.058v-0.504z m508.488-346.488c-102.411 0.278-185.671-68.736-185.894-154.087-0.223-85.351 82.675-154.667 185.087-154.761C871.92 275.014 955 344.178 955 429.53c-0.11 85.051-82.635 154.054-184.685 154.424z m0-271.881c-77.947 0-141.135 52.663-141.135 117.625s63.188 117.624 141.135 117.624c77.947 0 141.135-52.662 141.135-117.624 0-64.962-63.188-117.625-141.135-117.625zM463.044 205.035c-55.676 0-100.81-37.616-100.81-84.017 0-46.402 45.134-84.018 100.81-84.018 55.677 0 100.811 37.616 100.811 84.017 0 46.402-45.134 84.018-100.811 84.018z m0-131.571c-31.453-0.093-57.021 21.115-57.058 47.33-0.037 26.213 25.471 47.472 56.924 47.441 31.454-0.031 56.901-21.34 56.79-47.554-0.22-26.001-25.457-47.034-56.656-47.217z" fill="#000000" p-id="4664"></path><path d="M420.085 862c-65.35-0.002-118.272-44.264-118.084-98.762 0.187-54.497 53.413-98.506 118.762-98.195 65.349 0.31 117.97 44.822 117.412 99.318-1.301 53.795-53.574 97.015-118.09 97.639z m0-160.659c-41.342-0.093-74.927 27.814-74.964 62.291-0.037 34.478 33.487 62.435 74.83 62.404 41.343-0.031 74.807-28.038 74.696-62.515-1.159-33.933-33.872-61.214-74.562-62.18z m236.986 79.825a23.613 23.613 0 0 1-8.464-1.512h-2.821c-4.964-2.527-8.126-6.923-8.464-11.764-0.662-4.718 0.694-9.479 3.829-13.444l172.902-208.555c4.246-4.752 10.835-7.654 17.936-7.899 2.928-0.093 5.838 0.427 8.463 1.513l2.822 0.84c4.994 2.581 8.156 7.039 8.463 11.932 0.685 4.666-0.675 9.381-3.828 13.276L675.006 773.772c-3.985 4.94-10.808 7.753-17.935 7.394z m-329.684-183.01c-6.422-0.218-12.491-2.508-16.927-6.386-2.794-3.562-4.394-7.681-4.635-11.932-0.163-5.356 3.048-10.393 8.463-13.276l278.095-183.515c3.904-2.192 8.411-3.522 13.099-3.865 6.432 0.246 12.53 2.46 17.129 6.218v0.84l1.008 0.84c2.848 3.489 4.519 7.552 4.836 11.764 0.072 5.425-3.2 10.501-8.665 13.444L340.687 594.122c-3.703 2.642-8.428 4.074-13.3 4.034z m443.34-102.345c-43.876 0.093-79.525-29.511-79.599-66.101-0.075-36.59 35.454-66.294 79.33-66.325 43.877-0.031 79.466 29.623 79.466 66.213-0.864 36.211-35.973 65.341-79.398 65.877l0.201 0.336z m0-95.455c-19.412-0.093-35.177 13.054-35.064 29.242 0.326 16.008 15.867 28.894 35.064 29.073 19.301 0.094 34.975-12.978 34.863-29.073-0.324-16.037-15.835-28.972-35.064-29.242h0.201z m89.474-190.572c-58.233-0.187-105.248-39.722-104.988-88.285 0.26-48.562 47.698-87.745 105.93-87.498 58.233 0.248 105.189 39.832 104.855 88.395-0.443 48.437-47.713 87.481-105.797 87.388z m0-139.317c-34.39 0-62.269 23.25-62.269 51.929 0 28.679 27.879 51.928 62.269 51.928s62.269-23.249 62.269-51.928c-0.22-28.604-27.97-51.746-62.269-51.929z" fill="#000000" p-id="4665"></path><path d="M919.011 393.992c-12.455 0.011-22.393-8.63-21.817-18.969l15.958-219.41c0.546-9.604 10.253-17.073 21.817-16.788 6.288-0.08 12.262 2.279 16.16 6.38 3.824 3.702 5.519 8.604 4.646 13.43l-15.958 218.234c0.236 9.603-9.254 17.413-20.806 17.123zM717.008 312.07c-3.634 0.052-7.21-0.763-10.302-2.35h-1.819c-4.509-2.384-7.869-6.008-9.494-10.24-1.93-4.693-1.264-9.855 1.818-14.102l76.358-113.818c3.975-6.119 11.844-9.781 20.2-9.4 3.694-0.03 7.327 0.783 10.504 2.35h1.818c4.51 2.384 7.87 6.008 9.494 10.24 1.772 4.707 1.113 9.813-1.818 14.101l-78.579 113.315c-3.744 5.816-11.052 9.434-18.988 9.401l0.808 0.503zM525.913 95.178C513.095 96.207 502 87.834 502 77.132c0-10.702 11.095-19.075 23.913-18.046h250.888c12.817-1.029 23.913 7.344 23.913 18.046 0 10.702-11.096 19.075-23.913 18.046H525.913z" fill="#000000" p-id="4666"></path><path d="M545.868 170.288c-12.031 0.007-21.788-8.119-21.788-18.144 0-10.026 9.757-18.15 21.788-18.144h222.963c12.018 0.007 21.757 8.128 21.757 18.144 0 10.016-9.739 18.137-21.757 18.144H545.868zM993.81 896.215H29.787c-12.378 0.088-22.227 8.675-21.772 18.984v84c0.94 9.455 10.389 16.746 21.772 16.8H993.81c12.136 0.093 22.06-8.03 22.17-18.144v-82.656c0.47-10.441-9.633-19.087-22.17-18.984z m-22.781 82.824H51.559v-48.048h919.47v48.048z" fill="#000000" p-id="4667"></path></svg>