<?xml version="1.0" standalone="no"?><!DOCTYPE svg PUBLIC "-//W3C//DTD SVG 1.1//EN" "http://www.w3.org/Graphics/SVG/1.1/DTD/svg11.dtd"><svg t="1736347006204" class="icon" viewBox="0 0 1062 1024" version="1.1" xmlns="http://www.w3.org/2000/svg" p-id="4513" xmlns:xlink="http://www.w3.org/1999/xlink" width="207.421875" height="200"><path d="M1022.208 930.2528h-12.9024v-121.6a21.1456 21.1456 0 0 0-20.992-21.2992h-110.8736a21.12 21.12 0 0 0-20.992 21.2736v121.6h-43.4944c-10.2144-72.0384-71.5008-127.5904-145.3568-127.5904h-33.5616q-0.1792-198.784-0.4608-200.192a112.3328 112.3328 0 0 0-31.8208-88.0384l-110.8992-112.4352 131.328-133.12c6.3232-6.4 11.6736-13.7728 15.8464-21.8112h130.304c11.5712 0 20.992-9.5232 20.992-21.248v-21.2992h48.9472v21.3248c0 7.5776 3.9936 14.592 10.496 18.432l72.7296 42.5472a20.736 20.736 0 0 0 20.992 0l72.7296-42.5728a21.4272 21.4272 0 0 0 7.68-29.056 20.8384 20.8384 0 0 0-28.672-7.7824l-62.2336 36.4288-51.7632-30.2848V152.9344l51.7632-30.3104 62.2592 36.4544a20.8384 20.8384 0 0 0 28.672-7.7824 21.4272 21.4272 0 0 0-7.68-29.0816l-72.7552-42.5728a20.736 20.736 0 0 0-20.992 0l-72.7296 42.5728a21.3248 21.3248 0 0 0-10.496 18.432v21.2992h-48.9728v-21.248a21.12 21.12 0 0 0-20.992-21.2992H588.032a88.4224 88.4224 0 0 0-91.9552 21.5808l-152.6528 154.7776c-56.4992 10.1376-99.584 60.2368-99.584 120.3968 0 40.2432 19.2768 76.0064 48.9728 98.304 3.7632 5.5808 8.0384 10.7776 12.7488 15.5648l114.944 116.48v156.1344h-25.6768c-73.856 0-135.1424 55.552-145.3568 127.616H205.952v-121.6a21.1456 21.1456 0 0 0-20.992-21.2992h-110.848a21.1456 21.1456 0 0 0-20.992 21.2736v121.6H40.192a21.1456 21.1456 0 0 0-20.992 21.2992c0 11.776 9.3952 21.2736 20.992 21.2736h982.016c11.5968 0 20.992-9.5232 20.992-21.248a21.1456 21.1456 0 0 0-20.992-21.2992zM747.3664 161.9456v42.5472h-99.0976a91.4944 91.4944 0 0 0-10.6752-42.5472h109.7728zM163.9936 930.2528H95.0784v-100.352h68.9152v100.352z m361.728-759.168a46.592 46.592 0 0 1 33.3824-14.0288c12.6208 0 24.4736 4.9664 33.3824 14.0288a48.384 48.384 0 0 1 0 67.6864l-120.448 122.112a121.6256 121.6256 0 0 0-72.6016-61.7728l126.2848-128.0256z m-239.9488 245.0688c0-43.9808 35.328-79.7696 78.6944-79.7696 43.392 0 78.6944 35.7888 78.6944 79.7696 0 43.9808-35.3024 79.7696-78.6944 79.7696-43.392 0-78.6944-35.7888-78.6944-79.7696z m87.1424 121.984c50.7904-3.584 93.0048-39.1424 107.136-86.9376l92.032 93.312a69.888 69.888 0 0 1 0 97.7664c-12.8768 13.056-30.0032 20.224-48.2304 20.224-18.2016 0-35.328-7.168-48.2304-20.224l-102.7072-104.1408z m219.136 142.9248v121.5744h-129.6128V686.08a109.0048 109.0048 0 0 0 129.6128-5.0176z m-300.032 249.1904c9.728-48.4864 52.1216-85.0944 102.784-85.0944h272.7936c50.688 0 93.056 36.608 102.8096 85.0944H291.9936z m675.328 0h-68.9408v-100.352h68.9152v100.352z" fill="#0EA726" p-id="4514"></path><path d="M1062.4 951.552q0 16.6656-11.6736 28.5184-11.776 11.9296-28.4928 11.9296H40.192q-16.7424 0-28.5184-11.9296-11.6736-11.8528-11.6736-28.544 0-16.6656 11.6736-28.5184 9.4976-9.6512 22.2208-11.52v-102.8608q0-16.6656 11.6736-28.5184 11.776-11.9552 28.5184-11.9552h110.8736q16.7424 0 28.5184 11.9552 11.6736 11.8528 11.6736 28.5184v102.4h8.3968q11.9808-50.5088 51.968-85.9904 46.9504-41.6 109.312-41.6h6.4512v-129.024L291.84 543.488q-7.168-7.2704-13.1328-15.616-24.4736-19.2-38.656-47.104-15.4624-30.3616-15.4624-64.6144 0-51.7376 33.0752-91.264 30.6688-36.6848 76.16-46.7968l148.5312-150.5792q22.272-22.6048 53.0432-29.5168 28.2624-6.3744 55.6544 2.2016h177.2288q16.7424 0 28.5184 11.9552 11.6736 11.8272 11.6736 28.5184v2.0736h10.5728v-2.0992q0-23.296 19.968-34.9952l72.7552-42.5728q20.1984-11.8272 40.3968 0l72.7296 42.5728q14.3616 8.4224 18.6368 24.576 4.2752 16.128-3.968 30.5664-8.2944 14.5664-24.3968 18.944-16.1536 4.3776-30.6432-4.096l-52.5568-30.7712-32.5632 19.072V202.496l32.5632 19.0464 52.5568-30.7456q14.464-8.4992 30.6432-4.096 16.128 4.352 24.3968 18.944 8.2432 14.4384 3.968 30.5408-4.2752 16.1792-18.6368 24.576l-72.7296 42.5728q-9.3696 5.504-20.1984 5.504-10.8288 0-20.1984-5.4784l-72.7296-42.5984q-19.9936-11.6992-19.9936-34.9696v-2.1248h-10.5728v2.0736q0 16.6912-11.6736 28.5184-11.776 11.9552-28.5184 11.9552H648.96q-5.76 8.6528-13.1328 16.0768l-118.016 119.6544 97.6128 98.9696q41.8304 42.3936 37.376 102.2208l0.384 180.2752h14.4128q62.336 0 109.2864 41.6 40.0128 35.4816 51.968 86.016h8.3968v-102.4q0-16.6912 11.6736-28.544 11.776-11.9552 28.5184-11.9552h110.848q16.7424 0 28.544 11.9552 11.6736 11.8528 11.6736 28.5184v102.8608q12.7232 1.8688 22.2208 11.52 11.6736 11.8528 11.6736 28.5184z m-38.4 0q0-0.9472-0.6144-1.5872-0.512-0.512-1.152-0.512h-32.128v-140.8q0-2.0992-1.792-2.0992h-110.8736q-1.792 0-1.792 2.0736v140.8h-79.36l-2.3296-16.4864q-6.7328-47.4112-42.5472-79.1552-36.0448-31.9488-83.8144-31.9488h-52.736l-0.4864-220.1344 0.0768-0.768q3.4048-42.8544-26.368-73.0368l-124.2112-125.9264 144.64-146.6112q7.5264-7.6288 12.4672-17.152l5.376-10.368h141.952q1.792 0 1.792-2.048V185.2672h87.3728v40.5248q0 1.28 0.9728 1.8432l72.7552 42.5728q0.384 0.2304 0.768 0.2304 0.4352 0 0.8192-0.2304l72.7552-42.5728q1.792-1.0496 0.6912-2.9952-0.4096-0.6912-1.1008-0.8704-0.6144-0.1792-1.1776 0.1536l-71.9616 42.112-70.9632-41.5232V141.9264l70.9632-41.5488 71.936 42.112q0.5888 0.3584 1.2032 0.1792 0.6912-0.1792 1.1008-0.896 1.1008-1.92-0.6912-2.9696l-72.7552-42.5728q-0.7936-0.4608-1.5872 0l-72.7552 42.5728q-0.9728 0.5632-0.9728 1.8432v40.4992h-87.3728v-40.448q0-2.0992-1.792-2.0992h-183.552l-3.0208-1.024q-18.6368-6.4512-37.888-2.1248-19.7376 4.4544-34.1248 19.0208l-156.928 159.104-6.016 1.0752q-35.84 6.4256-59.648 34.8672-24.1152 28.8512-24.1152 66.6368 0 51.9424 41.2928 82.944l2.56 1.9456 1.792 2.6112q4.7104 6.9376 10.5728 12.8768l120.448 122.112v183.1936h-44.8768q-47.744 0-83.8144 31.9488Q275.2 885.504 268.4672 932.9408l-2.3552 16.512h-79.36v-140.8q0-0.9472-0.6144-1.5872-0.512-0.512-1.1776-0.512h-110.848q-1.792 0-1.792 2.0736v140.8H40.192q-0.6656 0-1.1776 0.512-0.6144 0.6656-0.6144 1.5872 0 1.2032 0.5888 1.6896 0.4352 0.384 1.2032 0.384h982.016q1.792 0 1.792-2.048z m-660.48-643.4048l148.5312-150.5536q19.456-19.7376 47.0528-19.7376t47.0528 19.712q19.3536 19.6352 19.3536 47.36 0 27.7248-19.3536 47.3088l-139.264 141.184-12.0064-23.936q-19.7376-39.3216-61.0816-52.0192l-30.2592-9.3184z m242.0736-165.376h160.9472v80.9216h-137.4208l-0.0768-19.0976q-0.1024-17.9456-8.448-33.6128l-15.0016-28.2368z m-129.9968 187.1616q-17.3824-23.552-42.6496-37.4784L539.392 184.576q8.192-8.2944 19.712-8.2944t19.712 8.2944q8.2944 8.3968 8.2944 20.3776 0 11.9552-8.2944 20.352l-103.2192 104.6528z m190.1312-144.64q-0.3584-2.0736-0.8192-4.1472h63.232v4.1472h-62.4128zM364.4672 515.1232q-40.576 0-69.2736-29.1072-28.6208-28.9792-28.6208-69.8624 0-40.8576 28.6208-69.8624 28.6976-29.1072 69.2736-29.1072t69.2992 29.1072q28.5952 29.0048 28.5952 69.888 0 40.8576-28.5952 69.8368-28.7232 29.1072-69.2992 29.1072z m0-38.4q24.5248 0 41.9584-17.664 17.536-17.792 17.536-42.9056 0-25.088-17.536-42.88-17.4336-17.664-41.9584-17.664-24.4992 0-41.9328 17.664-17.5616 17.7664-17.5616 42.88 0 25.1136 17.5616 42.9056 17.408 17.664 41.9328 17.664z m97.5104 179.0208l-132.0448-133.8112 41.6256-2.944q31.6928-2.2272 56.4992-22.5792 24.576-20.1472 33.5872-50.6368l9.216-31.232 114.8928 116.48q25.472 25.8304 25.472 62.3616 0 36.5568-25.472 62.3872-25.6 25.9584-61.9008 25.9584-36.2752 0-61.8752-25.984z m27.3152-26.9568q14.336 14.5408 34.56 14.5408t34.56-14.5408q14.4128-14.592 14.4128-35.4048 0-20.7872-14.4128-35.4048l-71.7824-72.7552q-12.8 23.296-34.2272 40.8832-19.0976 15.6416-41.1648 23.552l78.08 79.1296z m34.56 57.0368q31.5392 0 56.192-19.7376l31.232-24.9856v180.736h-168.0384v-172.0576l30.0032 20.4544q22.8864 15.5904 50.6112 15.5904z m0 38.4q-22.1952 0-42.24-7.0144v66.2272h91.2384v-68.736q-22.8352 9.5232-48.9984 9.5232zM183.1936 810.7008v138.752H75.8784v-138.752h107.3152z m803.328 0v138.752h-107.3152v-138.752h107.3152z m-192.6656 138.752H268.544l4.608-22.9888q8.704-43.2896 42.5728-71.68 34.432-28.8256 79.104-28.8256h272.768q44.672 0 79.0784 28.8512 33.8432 28.3648 42.5472 71.6544l4.608 22.9888z m-649.0624-38.4v-61.952H114.2784v61.952h30.5152z m803.328 0v-61.952h-30.5152v61.952h30.5152z m-226.0992-26.8032q13.824 11.5968 21.632 26.8032H318.72q7.808-15.2064 21.6576-26.8032 23.7056-19.8912 54.4-19.8912h272.7936q30.72 0 54.4256 19.8912z" fill="#0EA726" p-id="4515"></path><path d="M379.1104 408.704a19.3536 19.3536 0 0 0 0 38.656 19.3536 19.3536 0 0 0 0-38.656z" fill="#0EA726" p-id="4516"></path></svg>