<?xml version="1.0" standalone="no"?><!DOCTYPE svg PUBLIC "-//W3C//DTD SVG 1.1//EN" "http://www.w3.org/Graphics/SVG/1.1/DTD/svg11.dtd"><svg t="1736347319808" class="icon" viewBox="0 0 1024 1024" version="1.1" xmlns="http://www.w3.org/2000/svg" p-id="13500" xmlns:xlink="http://www.w3.org/1999/xlink" width="200" height="200"><path d="M966.2976 512.9728l-44.6976 0.6144v153.6h-102.4v-256l-307.2-307.2-307.2 307.2v563.2H102.4v-460.8L43.4176 511.8464 0 462.3872l512-460.8 512 460.8zM377.856 714.4448a194.56 194.56 0 0 1 18.0224-43.4176c-5.8368-8.8576-39.1168-61.44-19.2-81.3568l12.0832-10.24c22.784-22.784 69.5808 9.6256 80.2816 17.6128a192.9216 192.9216 0 0 1 44.1344-18.6368c3.4304-13.6704 18.8928-68.352 45.824-68.352h12.544c31.3344 0 42.4448 52.8384 45.0048 67.9936a190.5152 190.5152 0 0 1 44.8 18.5344c11.6736-7.6288 60.4672-37.5296 79.5648-18.432l11.4176 12.032c22.3232 22.3232-8.7552 67.584-17.664 79.5648a194.8672 194.8672 0 0 1 18.5344 44.2368c3.9936 0.5632 67.84 10.24 67.84 45.568v12.544c0 26.7264-53.6576 42.0864-67.9424 45.7216a194.56 194.56 0 0 1-18.5344 44.2368c1.1776 1.4336 42.6496 53.6064 17.152 79.0528l-12.6976 12.7488c-19.0976 19.0976-66.9696-10.8544-78.3872-18.4832a193.4336 193.4336 0 0 1-46.848 18.7904h3.328s-9.0624 68.1984-45.6192 68.1984h-12.544c-27.8528 0-43.4176-58.4192-46.08-69.4272a195.072 195.072 0 0 1-46.08-19.8144l2.56 2.6624s-54.016 42.496-79.872 16.64l-11.4176-9.5232c-19.712-19.712 12.2368-72.0384 18.432-81.92a192.6656 192.6656 0 0 1-18.1248-43.0592c-10.752-2.6112-69.5808-18.1248-69.5808-46.08v-12.544c-0.2048-31.8976 55.9104-42.752 69.0688-44.8512z m185.344 144.384a94.4128 94.4128 0 0 0 93.5936-92.928A93.3376 93.3376 0 0 0 563.2 674.2016a91.6992 91.6992 0 0 0-91.648 91.6992A92.7744 92.7744 0 0 0 563.2 858.8288z m1.1776-143.36a51.6096 51.6096 0 1 1-51.6096 51.6096 51.6096 51.6096 0 0 1 51.456-51.456z" fill="#1AB395" p-id="13501"></path></svg>