<?xml version="1.0" standalone="no"?><!DOCTYPE svg PUBLIC "-//W3C//DTD SVG 1.1//EN" "http://www.w3.org/Graphics/SVG/1.1/DTD/svg11.dtd"><svg t="1736347366801" class="icon" viewBox="0 0 1024 1024" version="1.1" xmlns="http://www.w3.org/2000/svg" p-id="18152" xmlns:xlink="http://www.w3.org/1999/xlink" width="200" height="200"><path d="M497.074882 465.179378c-10.829857 0-19.533124-2.087209-30.362981-8.545742L93.377193 285.36437c-32.568334-12.838303-45.564162-49.226623-32.568333-79.195791 6.537296-12.877685 17.367153-25.715988 32.568333-29.969168L449.344748 11.309915a107.038369 107.038369 0 0 1 95.499649 0l355.967555 164.889496c30.362981 12.838303 45.564162 49.226623 32.568333 81.322381-6.537296 12.877685-17.367153 25.715988-32.568333 30.008549l-373.334708 171.269266a86.245043 86.245043 0 0 1-30.402362 6.419152z" fill="#84BAFA" p-id="18153"></path><path d="M399.409262 1024c-8.663886 0-19.533124-2.12659-28.197009-6.419152L34.777821 861.355238A61.631732 61.631732 0 0 1 0.043516 805.59132V411.699575c0-21.423426 12.995828-42.846853 32.568334-53.558566a57.496695 57.496695 0 0 1 58.599372 0l336.434431 154.177783c19.533124 10.711713 32.528952 32.095758 34.734305 53.519184v396.097098c0 21.384045-13.03521 42.807471-30.402362 53.519184-10.869238 4.25318-21.699095 8.545742-32.568334 8.545742z m193.165268 0c-10.829857 0-21.659714-2.12659-30.362981-8.545742-19.533124-10.711713-30.402362-32.135139-30.402362-53.558565V565.877357c0-21.423426 13.03521-42.807471 32.568334-53.558565l338.600402-156.264992a58.83566 58.83566 0 0 1 56.4334 2.165971c19.533124 10.672332 32.568334 32.095758 32.568334 53.519185v393.931126c0 23.550016-12.995828 44.973443-32.568334 55.685156l-338.600402 154.138402c-8.663886 6.419152-19.533124 8.545742-28.19701 8.545741z" fill="#508ED7" p-id="18154"></path></svg>