<?xml version="1.0" standalone="no"?><!DOCTYPE svg PUBLIC "-//W3C//DTD SVG 1.1//EN" "http://www.w3.org/Graphics/SVG/1.1/DTD/svg11.dtd"><svg t="1736347279441" class="icon" viewBox="0 0 1024 1024" version="1.1" xmlns="http://www.w3.org/2000/svg" p-id="13214" xmlns:xlink="http://www.w3.org/1999/xlink" width="200" height="200"><path d="M1015.922893 468.736L883.314893 342.784v-184.32c0-39.168-30.464-70.912-67.584-70.912-37.376 0-67.584 31.744-67.584 70.912v58.368l-219.136-209.92c-9.728-9.216-25.088-9.216-35.072 0L8.050893 468.736c-7.68 7.168-9.984 20.992-6.4 30.72 3.84 9.728 13.312 18.688 23.808 18.688h145.152v299.264l-48.64 51.456c-17.152 17.152-26.368 39.936-26.368 64.256s9.472 47.104 26.368 64.256c17.152 17.152 39.936 26.624 64 26.624s46.848-9.472 64-26.624l2.816-2.816H826.994893c14.336 0 25.856-11.52 25.856-25.856v-450.56h146.176c10.496 0 19.712-8.96 23.552-18.688 3.584-9.728 1.024-23.552-6.656-30.72zM215.922893 962.048c-15.872 16.128-43.008 16.128-58.88 0-7.936-8.192-12.544-18.688-12.544-30.208s4.352-22.272 12.544-30.208l240.64-241.664-8.192-24.576c-8.704-25.856-9.984-53.504-4.096-79.872 6.144-27.136 18.432-49.664 38.144-69.632 27.904-27.648 64.512-43.264 103.68-43.264-19.968 20.48-30.72 46.592-30.72 73.472 0 27.392 8.96 54.016 29.44 74.496s49.408 30.72 76.544 30.72c26.624 0 51.456-11.008 71.424-30.72 0 8.192-0.768 16.384-2.048 24.32-5.12 30.208-18.944 57.6-40.704 79.36-27.904 27.904-63.744 42.24-103.168 42.24-15.872 0-32-2.56-47.36-7.936l-24.576-8.192-240.128 241.664z m573.44-707.328V160.512c0-15.104 12.288-27.648 27.392-27.648s27.392 12.544 27.392 27.648v146.432l-54.784-52.224z" p-id="13215"></path></svg>