<?xml version="1.0" standalone="no"?><!DOCTYPE svg PUBLIC "-//W3C//DTD SVG 1.1//EN" "http://www.w3.org/Graphics/SVG/1.1/DTD/svg11.dtd"><svg t="1736347312702" class="icon" viewBox="0 0 1024 1024" version="1.1" xmlns="http://www.w3.org/2000/svg" p-id="13357" xmlns:xlink="http://www.w3.org/1999/xlink" width="200" height="200"><path d="M877.714286 463.238095v438.857143H146.285714V463.238095H72.240762a24.380952 24.380952 0 0 1-14.774857-43.763809L512 73.142857l454.534095 346.331429A24.380952 24.380952 0 0 1 951.759238 463.238095H877.714286z m-194.633143 137.118476A152.624762 152.624762 0 0 0 683.885714 585.142857c0-5.12-0.316952-10.191238-0.804571-15.213714l39.984762-30.524953a21.382095 21.382095 0 0 0 5.315047-27.91619l-42.617904-72.021333a22.966857 22.966857 0 0 0-27.964953-9.45981l-46.86019 18.383238a169.472 169.472 0 0 0-26.819048-15.262476l-7.119238-48.859429a22.552381 22.552381 0 0 0-22.357333-18.553904H469.333333c-11.215238 0-20.601905 7.801905-22.381714 18.70019l-7.070476 48.713143c-9.264762 4.217905-18.285714 9.313524-26.86781 15.262476l-46.982095-18.456381c-10.118095-3.803429-22.381714 0.390095-27.794286 9.508572l-42.617904 72.021333a21.455238 21.455238 0 0 0 5.461333 28.038095l39.838476 30.427429c-0.512 4.998095-0.828952 10.093714-0.828952 15.213714 0 5.12 0.316952 10.215619 0.828952 15.213714l-40.033524 30.524953a21.430857 21.430857 0 0 0-5.266285 27.891809l42.666666 72.070096a23.064381 23.064381 0 0 0 27.916191 9.435428l46.86019-18.407619c8.606476 5.973333 17.603048 11.068952 26.819048 15.238095l7.119238 48.932572c1.755429 10.727619 11.166476 18.529524 22.332952 18.529524h85.284572a22.649905 22.649905 0 0 0 22.406095-18.700191l7.070476-48.761905c9.264762-4.193524 18.285714-9.264762 26.843429-15.238095l46.982095 18.480762a23.088762 23.088762 0 0 0 27.843048-9.508571l42.569142-71.996953a21.504 21.504 0 0 0-5.461333-28.16l-39.789714-30.329905zM512 658.285714a73.142857 73.142857 0 1 1 0-146.285714 73.142857 73.142857 0 0 1 0 146.285714z" fill="#d81e06" p-id="13358"></path></svg>